# AST/ASF file generated using VICON BodyLanguage
# -----------------------------------------------
:version 1.10
:name VICON
:units
  mass 1.0
  length 0.45
  angle deg
:documentation
   .ast/.asf automatically generated from VICON data using
   VICON BodyBuilder and BodyLanguage model FoxedUp or BRILLIANT.MOD
:root
   order TX TY TZ RX RY RZ
   axis XYZ
   position 0 0 0  
   orientation 0 0 0 
:bonedata
  begin
     id 1 
     name lhipjoint
     direction 0.661853 -0.702389 0.261917 
     length 2.64193 
     axis 0 0 0  XYZ
  end
  begin
     id 2 
     name lfemur
     direction 0.34202 -0.939693 0  
     length 7.01722  
     axis 0 0 20  XYZ
    dof rx ry rz
    limits (-160.0 20.0)
           (-70.0 70.0)
           (-60.0 70.0)
  end
  begin
     id 3 
     name ltibia
     direction 0.34202 -0.939693 0   
     length 8.25008   
     axis 0 0 20   XYZ
    dof rx
    limits (-10.0 170.0)
  end
  begin
     id 4 
     name lfoot
     direction 0.0709916 -0.195048 0.978221   
     length 2.31941   
     axis -90 7.62852e-016 20   XYZ
    dof rx rz
    limits (-45.0 90.0)
           (-70.0 20.0)
  end
  begin
     id 5 
     name ltoes
     direction 1.53586e-011 -4.22017e-011 1   
     length 1.16486   
     axis -90 7.62852e-016 20   XYZ
    dof rx
    limits (-90.0 20.0)
  end
  begin
     id 6 
     name rhipjoint
     direction -0.638185 -0.721362 0.268992   
     length 2.57244  
     axis 0 0 0  XYZ 
  end
  begin
     id 7 
     name rfemur
     direction -0.34202 -0.939693 0   
     length 7.07017   
     axis 0 0 -20   XYZ
    dof rx ry rz
    limits (-160.0 20.0)
           (-70.0 70.0)
           (-70.0 60.0)
  end
  begin
     id 8 
     name rtibia
     direction -0.34202 -0.939693 0   
     length 8.20386   
     axis 0 0 -20   XYZ
    dof rx
    limits (-10.0 170.0)
 end
 begin
     id 9 
     name rfoot
     direction -0.0822429 -0.225961 0.970658   
     length 2.32215  
     axis -90 -7.62852e-016 -20   XYZ
    dof rx rz
    limits (-45.0 90.0)
           (-20.0 70.0)
  end
  begin
     id 10 
     name rtoes
     direction -1.53597e-011 -4.21689e-011 1   
     length 1.16333   
     axis -90 -7.62852e-016 -20   XYZ
    dof rx
    limits (-90.0 20.0)
  end
  begin
     id 11 
     name lowerback
     direction -0.0131557 0.998589 -0.0514484   
     length 2.14993   
     axis 0 0 0   XYZ
    dof rx ry rz
    limits (-20.0 45.0)
           (-30.0 30.0)
           (-30.0 30.0)
  end
  begin
     id 12 
     name upperback
     direction -0.000776481 0.999993 0.00352685   
     length 2.15301   
     axis 0 0 0   XYZ
    dof rx ry rz
    limits (-20.0 45.0)
           (-30.0 30.0)
           (-30.0 30.0)
  end
  begin
     id 13 
     name thorax
     direction 0.00438186 0.999609 0.0276143   
     length 2.15424   
     axis 0 0 0   XYZ
    dof rx ry rz
    limits (-20.0 45.0)
           (-30.0 30.0)
           (-30.0 30.0)
  end
  begin
     id 14 
     name lowerneck
     direction -0.0488006 0.998094 0.0377807   
     length 1.90481   
     axis 0 0 0   XYZ
    dof rx ry rz
    limits (-20.0 45.0)
           (-30.0 30.0)
           (-30.0 30.0)
  end
  begin
     id 15 
     name upperneck
     direction 0.0443769 0.990702 -0.12861   
     length 1.91305   
     axis 0 0 0   XYZ
    dof rx ry rz
    limits (-20.0 45.0)
           (-30.0 30.0)
           (-30.0 30.0)
  end
  begin
     id 16
     name head
     direction 0.0165599 0.998647 -0.0492982  
     length 1.92369  
     axis 0 0 0   XYZ
    dof rx ry rz
    limits (-20.0 45.0)
           (-30.0 30.0)
           (-30.0 30.0)
  end
  begin
     id 17 
     name lclavicle
     direction 0.911936 0.410197 -0.0105506  
     length 3.52622  
     axis 0 0 0   XYZ
    dof ry rz
    limits (-20.0 10.0)
           (0.0 20.0)
  end
  begin
     id 18 
     name lhumerus
     direction 1 -4.48974e-011 -2.48591e-028   
     length 5.47651   
     axis 180 -30 -90   XYZ
    dof rx ry rz
    limits (-60.0 90.0)
           (-90.0 90.0)
           (-90.0 90.0)
  end
  begin
     id 19
     name lradius
     direction 1 -4.48938e-011 -4.40099e-027   
     length 3.09058   
     axis 180 -30 -90   XYZ
    dof rx
    limits (-10.0 170.0)
  end
  begin
     id 20
     name lwrist
     direction 1 -4.49042e-011 -2.99852e-027   
     length 1.54529   
     axis 1.95339e-015 90 90   XYZ
    dof ry
    limits (-180.0 0.0)
 end
  begin
     id 21 
     name lhand
     direction 1 -4.48815e-011 -5.98193e-027   
     length 0.771611   
     axis 3.82337e-015 90 90   XYZ
    dof rx rz
    limits (-90.0 90.0)
           (-45.0 45.0)
  end
  begin
     id 22 
     name lfingers
     direction 1 -4.49034e-011 -1.1993e-026   
     length 0.622093   
     axis 7.64668e-015 90 90   XYZ
    dof rx
    limits (0.0 90.0)
  end
  begin
     id 23
     name lthumb
     direction 0.707107 -6.34867e-011 0.707107   
     length 0.893204   
     axis -90 45 -1.62303e-014   XYZ
    dof rx rz
    limits (-45.0 45.0)
           (-45.0 45.0)
  end
  begin
     id 24 
     name rclavicle
     direction -0.93442 0.355634 -0.0195692   
     length 3.62463  
     axis 0 0 0   XYZ 
    dof ry rz
    limits (-10.0 20.0)
           (-20.0 0.0)
  end
  begin
     id 25 
     name rhumerus
     direction -1 -4.48957e-011 -1.19147e-027  
     length 5.14182   
     axis 180 30 90   XYZ
    dof rx ry rz
    limits (-90.0 60.0)
           (-90.0 90.0)
           (-90.0 90.0)
  end
  begin
     id 26 
     name rradius
     direction -1 -4.48952e-011 -3.81062e-027   
     length 3.35565   
     axis 180 30 90   XYZ
    dof rx
    limits (-10.0 170.0)
  end
  begin
     id 27 
     name rwrist
     direction -1 -4.48973e-011 -2.99621e-027   
     length 1.67782   
     axis 1.95339e-015 -90 -90   XYZ
    dof ry
    limits (-180.0 0.0)
  end
  begin
     id 28
     name rhand
     direction -1 -4.48895e-011 -5.98727e-027   
     length 0.801042   
     axis 3.82337e-015 -90 -90   XYZ
    dof rx rz
    limits (-90.0 90.0)
           (-45.0 45.0)
  end
  begin
     id 29
     name rfingers
     direction -1 -4.49065e-011 -1.19972e-026   
     length 0.645821   
     axis 7.64668e-015 -90 -90   XYZ
    dof rx
    limits (0.0 90.0)
  end
  begin
     id 30
     name rthumb
     direction -0.707107 -6.34957e-011 0.707107   
     length 0.927273   
     axis -90 -45 1.62303e-014   XYZ
    dof rx rz
    limits (-45.0 45.0)
           (-45.0 45.0)
  end
:hierarchy
  begin
    root lhipjoint rhipjoint lowerback
    lhipjoint lfemur
    lfemur ltibia
    ltibia lfoot
    lfoot ltoes
    rhipjoint rfemur
    rfemur rtibia
    rtibia rfoot
    rfoot rtoes
    lowerback upperback
    upperback thorax
    thorax lowerneck lclavicle rclavicle
    lowerneck upperneck
    upperneck head
    lclavicle lhumerus
    lhumerus lradius
    lradius lwrist
    lwrist lhand lthumb
    lhand lfingers
    rclavicle rhumerus
    rhumerus rradius
    rradius rwrist
    rwrist rhand rthumb
    rhand rfingers
  end

#!OML:ASF E:\Style4\Style4.ASF
:FULLY-SPECIFIED
:DEGREES
234
root 0.266652 17.9154 -1.12995 -0.660228 -4.9084 2.3843
lowerback 4.408 3.33112 -4.69107
upperback 1.80517 4.21154 -2.60935
thorax -0.747286 2.09322 -0.276205
lowerneck 2.62207 -7.30797 -7.72645
upperneck 3.87517 -10.052 5.57527
head 1.51972 -5.0892 3.03003
rclavicle -3.53837e-014 -3.97569e-015
rhumerus 27.3511 -8.65651 -47.2266
rradius 114.729
rwrist -45.4291
rhand -33.5646 17.6254
rfingers 7.12502
rthumb -6.75931 -12.2467
lclavicle -3.53837e-014 -3.97569e-015
lhumerus -47.7268 -43.5881 102.988
lradius 110.643
lwrist 32.6576
lhand -12.3084 24.7651
lfingers 7.12502
lthumb 13.7598 54.2901
rfemur -9.90578 4.65147 15.1323
rtibia 27.5614
rfoot -15.9538 -11.5393
rtoes -15.1314
lfemur -6.14668 -0.793709 -22.4082
ltibia 23.9581
lfoot -18.5033 11.435
ltoes -11.6647
235
root 0.265593 17.9117 -1.13587 -0.646249 -4.88981 2.32458
lowerback 4.48665 3.35997 -4.64105
upperback 1.80595 4.24573 -2.68516
thorax -0.782021 2.11116 -0.388293
lowerneck 2.63716 -7.202 -7.64167
upperneck 3.9886 -9.91308 5.57557
head 1.53874 -5.01951 3.01734
rclavicle -7.7526e-015 1.19271e-014
rhumerus 28.4567 -10.0141 -46.9156
rradius 113.75
rwrist -46.0443
rhand -33.2947 17.4351
rfingers 7.12502
rthumb -6.49874 -12.4452
lclavicle -7.7526e-015 1.19271e-014
lhumerus -47.5509 -43.8273 102.875
lradius 110.655
lwrist 32.5463
lhand -12.4614 24.667
lfingers 7.12502
lthumb 13.6123 54.2019
rfemur -9.97957 4.65452 15.2029
rtibia 27.6478
rfoot -15.9646 -11.5669
rtoes -15.0989
lfemur -6.29494 -0.724653 -22.3302
ltibia 24.1637
lfoot -18.5183 11.3679
ltoes -11.7723
236
root 0.265821 17.9068 -1.14271 -0.679138 -4.86304 2.23643
lowerback 4.6103 3.40555 -4.53267
upperback 1.85057 4.30383 -2.75644
thorax -0.793244 2.14048 -0.530552
lowerneck 2.52891 -7.11535 -7.56345
upperneck 4.19733 -9.79498 5.58316
head 1.61316 -4.95895 3.00099
rclavicle -8.14023e-014 2.46493e-014
rhumerus 29.5636 -11.4038 -46.6634
rradius 112.696
rwrist -46.7294
rhand -33.0344 17.2457
rfingers 7.12502
rthumb -6.24738 -12.6422
lclavicle -8.14023e-014 2.46493e-014
lhumerus -47.2444 -44.088 102.665
lradius 110.674
lwrist 32.4328
lhand -12.4726 24.6824
lfingers 7.12502
lthumb 13.6015 54.2181
rfemur -9.99848 4.61545 15.301
rtibia 27.7338
rfoot -15.9814 -11.561
rtoes -15.1132
lfemur -6.41651 -0.649114 -22.2209
ltibia 24.4064
lfoot -18.5393 11.2214
ltoes -11.8869
237
root 0.266811 17.9021 -1.1498 -0.671189 -4.8263 2.17597
lowerback 4.68993 3.44416 -4.43644
upperback 1.89962 4.35543 -2.84678
thorax -0.774228 2.1662 -0.682299
lowerneck 2.34857 -7.03173 -7.49299
upperneck 4.43483 -9.6808 5.66442
head 1.71534 -4.89881 3.00775
rclavicle -6.34123e-014 5.48646e-014
rhumerus 30.6479 -12.7814 -46.5003
rradius 111.703
rwrist -47.4747
rhand -32.8076 16.8222
rfingers 7.12502
rthumb -6.02848 -13.072
lclavicle -6.34123e-014 5.48646e-014
lhumerus -46.8102 -44.3511 102.356
lradius 110.661
lwrist 32.4026
lhand -12.0453 24.9298
lfingers 7.12502
lthumb 14.0134 54.4375
rfemur -10.077 4.54137 15.3575
rtibia 27.8315
rfoot -15.9685 -11.5468
rtoes -15.3186
lfemur -6.58819 -0.605339 -22.1497
ltibia 24.6665
lfoot -18.6511 11.1508
ltoes -11.8306
238
root 0.267542 17.8975 -1.15757 -0.689376 -4.78597 2.08767
lowerback 4.80176 3.48511 -4.31142
upperback 1.96903 4.41035 -2.94035
thorax -0.74946 2.19358 -0.854787
lowerneck 2.16085 -6.94101 -7.33709
upperneck 4.629 -9.55442 5.7253
head 1.79758 -4.83068 2.9934
rclavicle 1.54058e-014 -2.8625e-014
rhumerus 31.7096 -14.2302 -46.4391
rradius 110.808
rwrist -48.417
rhand -32.3946 16.156
rfingers 7.12502
rthumb -5.62973 -13.7492
lclavicle 1.54058e-014 -2.8625e-014
lhumerus -46.3337 -44.6496 101.973
lradius 110.681
lwrist 32.4599
lhand -11.8526 24.907
lfingers 7.12502
lthumb 14.199 54.4017
rfemur -10.1413 4.49642 15.4544
rtibia 27.9504
rfoot -16.0159 -11.5566
rtoes -15.3704
lfemur -6.72172 -0.539392 -22.0405
ltibia 24.8989
lfoot -18.7309 11.0109
ltoes -11.5163
239
root 0.268278 17.8924 -1.16397 -0.702013 -4.745 2.02885
lowerback 4.82875 3.41755 -4.35907
upperback 2.07425 4.32121 -2.96335
thorax -0.656065 2.14681 -0.844359
lowerneck 1.89926 -6.7571 -7.1316
upperneck 4.84711 -9.29255 5.62169
head 1.87825 -4.69446 2.91589
rclavicle -2.01766e-014 -1.59028e-015
rhumerus 32.9958 -15.3197 -46.4962
rradius 109.814
rwrist -49.2935
rhand -32.1227 15.7718
rfingers 7.12502
rthumb -5.36722 -14.1403
lclavicle -2.01766e-014 -1.59028e-015
lhumerus -45.7622 -44.6118 101.454
lradius 110.698
lwrist 32.4282
lhand -11.8998 24.6611
lfingers 7.12502
lthumb 14.1536 54.159
rfemur -10.2231 4.42046 15.5153
rtibia 28.0928
rfoot -16.0901 -11.4941
rtoes -15.3796
lfemur -6.8405 -0.476566 -21.9643
ltibia 25.0958
lfoot -18.7319 10.8372
ltoes -11.0753
240
root 0.269234 17.8877 -1.16703 -0.713295 -4.67069 2.11795
lowerback 4.79023 3.34175 -4.59334
upperback 2.14457 4.21581 -2.96286
thorax -0.576557 2.09104 -0.703482
lowerneck 1.8409 -6.55765 -7.09502
upperneck 5.06755 -9.02351 5.51891
head 1.93368 -4.56064 2.87752
rclavicle 1.0138e-014 -1.59028e-015
rhumerus 34.1088 -16.0791 -46.3815
rradius 108.704
rwrist -49.7003
rhand -32.3167 15.975
rfingers 7.12502
rthumb -5.55448 -13.9322
lclavicle 1.0138e-014 -1.59028e-015
lhumerus -45.373 -44.4905 101.155
lradius 110.729
lwrist 32.265
lhand -11.8917 24.7151
lfingers 7.12502
lthumb 14.1613 54.2125
rfemur -10.3012 4.30882 15.3988
rtibia 28.2482
rfoot -16.1508 -11.4224
rtoes -15.1588
lfemur -6.94982 -0.431852 -22.0628
ltibia 25.2813
lfoot -18.7496 10.7739
ltoes -11.4234
241
root 0.268736 17.8835 -1.17185 -0.724431 -4.58897 2.17567
lowerback 4.85918 3.40317 -4.64563
upperback 2.11305 4.28801 -3.01923
thorax -0.648318 2.12828 -0.742497
lowerneck 2.11107 -6.45878 -7.1611
upperneck 5.20312 -8.91426 5.56726
head 1.9291 -4.5111 2.91697
rclavicle 4.90998e-014 -6.04305e-014
rhumerus 34.8228 -17.0623 -46.1014
rradius 107.619
rwrist -50.183
rhand -32.4182 16.1974
rfingers 7.12502
rthumb -5.65246 -13.7072
lclavicle 4.90998e-014 -6.04305e-014
lhumerus -45.3211 -44.7454 101.214
lradius 110.705
lwrist 32.1842
lhand -12.2707 24.5392
lfingers 7.12502
lthumb 13.7962 54.0617
rfemur -10.3886 4.22297 15.3303
rtibia 28.4006
rfoot -16.167 -11.4131
rtoes -15.07
lfemur -7.07216 -0.437241 -22.1203
ltibia 25.4665
lfoot -18.8297 10.709
ltoes -11.5385
242
root 0.268122 17.8781 -1.17883 -0.739475 -4.50608 2.14453
lowerback 4.95695 3.48542 -4.5658
upperback 2.1235 4.39392 -3.09539
thorax -0.682346 2.18232 -0.876942
lowerneck 2.28668 -6.38011 -7.0948
upperneck 5.31489 -8.82428 5.60917
head 1.92697 -4.46727 2.92646
rclavicle -3.73715e-014 3.97569e-015
rhumerus 35.5501 -18.1839 -45.9331
rradius 106.575
rwrist -50.7016
rhand -32.2879 16.056
rfingers 7.12502
rthumb -5.52673 -13.8519
lclavicle -3.73715e-014 3.97569e-015
lhumerus -45.1253 -45.0992 101.153
lradius 110.681
lwrist 32.1287
lhand -12.4775 24.4159
lfingers 7.12502
lthumb 13.5969 53.9519
rfemur -10.4524 4.20587 15.3712
rtibia 28.5475
rfoot -16.1963 -11.4844
rtoes -15.2764
lfemur -7.19786 -0.450256 -22.0758
ltibia 25.6489
lfoot -18.8366 10.5311
ltoes -11.4275
243
root 0.268345 17.8735 -1.18535 -0.76654 -4.46516 2.02567
lowerback 5.03084 3.52384 -4.44433
upperback 2.20124 4.44922 -3.12427
thorax -0.632985 2.2095 -0.97851
lowerneck 2.24747 -6.28679 -6.979
upperneck 5.48266 -8.70004 5.5904
head 1.97287 -4.40308 2.8991
rclavicle 2.98177e-016 0
rhumerus 36.482 -19.1395 -45.8823
rradius 105.51
rwrist -50.9051
rhand -32.3046 15.9822
rfingers 7.12502
rthumb -5.54284 -13.9253
lclavicle 2.98177e-016 0
lhumerus -44.7426 -45.2936 100.905
lradius 110.688
lwrist 32.032
lhand -12.3449 24.4559
lfingers 7.12502
lthumb 13.7246 53.9833
rfemur -10.5026 4.19671 15.509
rtibia 28.6888
rfoot -16.2416 -11.5202
rtoes -15.3142
lfemur -7.31178 -0.410003 -21.9322
ltibia 25.8515
lfoot -18.8656 10.3505
ltoes -11.2552
244
root 0.267811 17.8687 -1.19041 -0.82996 -4.39935 1.96702
lowerback 5.12537 3.53715 -4.38282
upperback 2.28252 4.46692 -3.17126
thorax -0.59359 2.21781 -1.06468
lowerneck 2.29149 -6.18 -6.92479
upperneck 5.5689 -8.56353 5.62684
head 1.98287 -4.33425 2.90585
rclavicle -3.27995e-015 7.95139e-016
rhumerus 37.421 -19.9429 -45.8893
rradius 104.454
rwrist -50.8072
rhand -32.4517 16.0754
rfingers 7.12502
rthumb -5.68483 -13.8283
lclavicle -3.27995e-015 7.95139e-016
lhumerus -44.3829 -45.4317 100.631
lradius 110.694
lwrist 31.9677
lhand -12.4009 24.5645
lfingers 7.12502
lthumb 13.6707 54.0955
rfemur -10.5109 4.15419 15.5772
rtibia 28.8327
rfoot -16.3163 -11.5065
rtoes -15.1402
lfemur -7.38714 -0.398487 -21.8577
ltibia 26.0768
lfoot -18.8849 10.3523
ltoes -11.2253
245
root 0.267359 17.8641 -1.19521 -0.866981 -4.31963 2.05571
lowerback 5.17848 3.52554 -4.52639
upperback 2.3457 4.44339 -3.22545
thorax -0.563702 2.20438 -1.0409
lowerneck 2.31351 -6.06016 -6.85739
upperneck 5.70897 -8.40582 5.58523
head 2.00797 -4.25534 2.88292
rclavicle -5.29761e-014 2.8625e-014
rhumerus 38.3556 -20.6081 -45.9694
rradius 103.37
rwrist -50.5023
rhand -32.41 16.2564
rfingers 7.12502
rthumb -5.64464 -13.6484
lclavicle -5.29761e-014 2.8625e-014
lhumerus -44.0926 -45.456 100.371
lradius 110.693
lwrist 31.9817
lhand -12.5268 24.6339
lfingers 7.12502
lthumb 13.5493 54.1731
rfemur -10.5652 4.08164 15.4765
rtibia 28.9905
rfoot -16.3594 -11.4825
rtoes -15.1738
lfemur -7.50477 -0.412841 -21.9557
ltibia 26.3132
lfoot -18.93 10.484
ltoes -11.9512
246
root 0.267638 17.8598 -1.2008 -0.872154 -4.25205 2.08588
lowerback 5.22934 3.52695 -4.5893
upperback 2.3805 4.43974 -3.28336
thorax -0.555897 2.20198 -1.06754
lowerneck 2.36184 -5.96413 -6.7837
upperneck 5.84571 -8.28385 5.59075
head 2.03229 -4.19384 2.87474
rclavicle 2.34566e-014 -1.74931e-014
rhumerus 39.1541 -21.2852 -46.0186
rradius 102.254
rwrist -50.1763
rhand -32.2447 16.3727
rfingers 7.12502
rthumb -5.485 -13.5363
lclavicle 2.34566e-014 -1.74931e-014
lhumerus -43.8964 -45.5176 100.167
lradius 110.71
lwrist 31.9705
lhand -12.5843 24.6998
lfingers 7.12502
lthumb 13.4939 54.2427
rfemur -10.6758 4.00774 15.4391
rtibia 29.1866
rfoot -16.3869 -11.4751
rtoes -15.283
lfemur -7.66722 -0.327043 -21.9921
ltibia 26.5522
lfoot -18.9403 10.5472
ltoes -13.0632
247
root 0.267215 17.8538 -1.20709 -0.875126 -4.20286 2.08561
lowerback 5.2557 3.53491 -4.62562
upperback 2.43828 4.44931 -3.32354
thorax -0.51041 2.20561 -1.08885
lowerneck 2.39508 -5.86775 -6.8113
upperneck 5.97061 -8.1666 5.70086
head 2.06693 -4.13518 2.92012
rclavicle 6.29153e-014 -3.97569e-015
rhumerus 39.9165 -21.9154 -46.0266
rradius 101.131
rwrist -49.833
rhand -32.1533 16.5011
rfingers 7.12502
rthumb -5.39674 -13.4102
lclavicle 6.29153e-014 -3.97569e-015
lhumerus -43.583 -45.5543 99.948
lradius 110.662
lwrist 31.9604
lhand -12.5689 24.6534
lfingers 7.12502
lthumb 13.5087 54.1952
rfemur -10.8106 4.02691 15.4402
rtibia 29.4169
rfoot -16.4871 -11.5373
rtoes -15.0731
lfemur -7.82199 -0.282392 -21.992
ltibia 26.7867
lfoot -18.927 10.4678
ltoes -13.1793
248
root 0.266294 17.846 -1.21463 -0.877058 -4.14404 2.14376
lowerback 5.29505 3.5318 -4.71439
upperback 2.50343 4.44087 -3.38004
thorax -0.466738 2.19983 -1.09755
lowerneck 2.41426 -5.79813 -6.83739
upperneck 6.09794 -8.08296 5.78092
head 2.10548 -4.09341 2.9538
rclavicle 5.52621e-014 -2.94201e-014
rhumerus 40.7042 -22.4457 -46.1088
rradius 99.9664
rwrist -49.3886
rhand -32.0741 16.6739
rfingers 7.12502
rthumb -5.32025 -13.2393
lclavicle 5.52621e-014 -2.94201e-014
lhumerus -43.2012 -45.5684 99.6473
lradius 110.625
lwrist 32.0185
lhand -12.4531 24.664
lfingers 7.12502
lthumb 13.6204 54.1984
rfemur -10.9653 4.11638 15.3896
rtibia 29.6633
rfoot -16.5802 -11.7123
rtoes -14.9849
lfemur -7.98332 -0.228896 -22.0465
ltibia 27.0082
lfoot -18.9102 10.3821
ltoes -13.0456
